<svg xmlns="http://www.w3.org/2000/svg" viewBox="0 0 247.744 247.744"><g fill="#000002"><path d="M206.89 0H74.824c-9.649 0-17.5 7.851-17.5 17.5v21.005h-16.47c-9.649 0-17.5 7.85-17.5 17.5v174.239c0 9.649 7.851 17.5 17.5 17.5h132.065c9.649 0 17.5-7.851 17.5-17.5V209.24h16.471c9.649 0 17.5-7.851 17.5-17.5V17.5c0-9.649-7.85-17.5-17.5-17.5zm-31.471 230.244c0 1.355-1.145 2.5-2.5 2.5H40.854c-1.355 0-2.5-1.145-2.5-2.5V56.005c0-1.356 1.145-2.5 2.5-2.5h132.065c1.355 0 2.5 1.144 2.5 2.5v174.239zm33.971-38.504c0 1.355-1.145 2.5-2.5 2.5h-16.471V56.005c0-9.65-7.851-17.5-17.5-17.5H72.324V17.5c0-1.355 1.144-2.5 2.5-2.5H206.89c1.355 0 2.5 1.145 2.5 2.5v174.24z"/><path d="M149.553 77.121H64.22a7.499 7.499 0 00-7.5 7.5c0 4.143 3.357 7.5 7.5 7.5h85.333c4.143 0 7.5-3.357 7.5-7.5a7.5 7.5 0 00-7.5-7.5zM149.553 110.898H64.22c-4.143 0-7.5 3.357-7.5 7.5s3.357 7.5 7.5 7.5h85.333c4.143 0 7.5-3.357 7.5-7.5s-3.357-7.5-7.5-7.5zM149.553 144.676H64.22a7.499 7.499 0 00-7.5 7.5c0 4.143 3.357 7.5 7.5 7.5h85.333c4.143 0 7.5-3.357 7.5-7.5s-3.357-7.5-7.5-7.5zM149.553 178.453H64.22a7.499 7.499 0 00-7.5 7.5c0 4.143 3.357 7.5 7.5 7.5h85.333c4.143 0 7.5-3.357 7.5-7.5a7.5 7.5 0 00-7.5-7.5z"/></g></svg>
